<svg width="24" height="24" viewBox="0 0 24 24" fill="none"
  xmlns="http://www.w3.org/2000/svg">
  <path d="M12 2C6.48 2 2 6.48 2 12C2 17.52 6.48 22 12 22C17.52 22 22 17.52 22 12C22 6.48 17.52 2 12 2ZM17 13H13V17C13 17.55 12.55 18 12 18C11.45 18 11 17.55 11 17V13H7C6.45 13 6 12.55 6 12C6 11.45 6.45 11 7 11H11V7C11 6.45 11.45 6 12 6C12.55 6 13 6.45 13 7V11H17C17.55 11 18 11.45 18 12C18 12.55 17.55 13 17 13Z" fill="#FE53BB" stroke="#FFFFFF" stroke-width="0.5" stroke-opacity="0.5"/>
  <path d="M12 2C6.48 2 2 6.48 2 12C2 17.52 6.48 22 12 22C17.52 22 22 17.52 22 12C22 6.48 17.52 2 12 2ZM17 13H13V17C13 17.55 12.55 18 12 18C11.45 18 11 17.55 11 17V13H7C6.45 13 6 12.55 6 12C6 11.45 6.45 11 7 11H11V7C11 6.45 11.45 6 12 6C12.55 6 13 6.45 13 7V11H17C17.55 11 18 11.45 18 12C18 12.55 17.55 13 17 13Z" fill="#FE53BB" stroke="#FE53BB" stroke-width="0.8"/>
  <g filter="url(#glow-add)">
    <path d="M12 2C6.48 2 2 6.48 2 12C2 17.52 6.48 22 12 22C17.52 22 22 17.52 22 12C22 6.48 17.52 2 12 2ZM17 13H13V17C13 17.55 12.55 18 12 18C11.45 18 11 17.55 11 17V13H7C6.45 13 6 12.55 6 12C6 11.45 6.45 11 7 11H11V7C11 6.45 11.45 6 12 6C12.55 6 13 6.45 13 7V11H17C17.55 11 18 11.45 18 12C18 12.55 17.55 13 17 13Z" fill="#FE53BB" stroke="#FE53BB" stroke-width="0.7"/>
  </g>
  <defs>
    <filter id="glow-add" x="-1" y="-1" width="26" height="26" filterUnits="userSpaceOnUse">
      <feGaussianBlur in="SourceGraphic" stdDeviation="0.5"/>
      <feColorMatrix type="matrix" values="0 0 0 0 0.996  0 0 0 0 0.325  0 0 0 0 0.733  0 0 0 1.2 0"/>
    </filter>
  </defs>
</svg>
