<svg width="24" height="24" viewBox="0 0 24 24" fill="none"
  xmlns="http://www.w3.org/2000/svg">
  <path d="M12 2C6.48 2 2 6.48 2 12C2 17.52 6.48 22 12 22C17.52 22 22 17.52 22 12C22 6.48 17.52 2 12 2ZM10 17L5 12L6.41 10.59L10 14.17L17.59 6.58L19 8L10 17Z" fill="#00FF9C" stroke="#FFFFFF" stroke-width="0.5" stroke-opacity="0.5"/>
  <path d="M12 2C6.48 2 2 6.48 2 12C2 17.52 6.48 22 12 22C17.52 22 22 17.52 22 12C22 6.48 17.52 2 12 2ZM10 17L5 12L6.41 10.59L10 14.17L17.59 6.58L19 8L10 17Z" fill="#00FF9C" stroke="#00FF9C" stroke-width="0.8"/>
  <g filter="url(#glow-check)">
    <path d="M12 2C6.48 2 2 6.48 2 12C2 17.52 6.48 22 12 22C17.52 22 22 17.52 22 12C22 6.48 17.52 2 12 2ZM10 17L5 12L6.41 10.59L10 14.17L17.59 6.58L19 8L10 17Z" fill="#00FF9C" stroke="#00FF9C" stroke-width="0.7"/>
  </g>
  <defs>
    <filter id="glow-check" x="-1" y="-1" width="26" height="26" filterUnits="userSpaceOnUse">
      <feGaussianBlur in="SourceGraphic" stdDeviation="0.5"/>
      <feColorMatrix type="matrix" values="0 0 0 0 0  0 0 0 0 1  0 0 0 0 0.6  0 0 0 1.2 0"/>
    </filter>
  </defs>
</svg>
