<svg width="24" height="24" viewBox="0 0 24 24" fill="none"
  xmlns="http://www.w3.org/2000/svg">
  <path d="M12 2C6.48 2 2 6.48 2 12C2 17.52 6.48 22 12 22C17.52 22 22 17.52 22 12C22 6.48 17.52 2 12 2ZM13.41 13.41L15.83 15.83C16.22 16.22 16.22 16.85 15.83 17.24C15.44 17.63 14.81 17.63 14.42 17.24L12 14.82L9.58 17.24C9.19 17.63 8.56 17.63 8.17 17.24C7.78 16.85 7.78 16.22 8.17 15.83L10.59 13.41L8.17 10.99C7.78 10.6 7.78 9.97 8.17 9.58C8.56 9.19 9.19 9.19 9.58 9.58L12 12L14.42 9.58C14.81 9.19 15.44 9.19 15.83 9.58C16.22 9.97 16.22 10.6 15.83 10.99L13.41 13.41Z" fill="#FF3B30" stroke="#FFFFFF" stroke-width="0.5" stroke-opacity="0.5"/>
  <path d="M12 2C6.48 2 2 6.48 2 12C2 17.52 6.48 22 12 22C17.52 22 22 17.52 22 12C22 6.48 17.52 2 12 2ZM13.41 13.41L15.83 15.83C16.22 16.22 16.22 16.85 15.83 17.24C15.44 17.63 14.81 17.63 14.42 17.24L12 14.82L9.58 17.24C9.19 17.63 8.56 17.63 8.17 17.24C7.78 16.85 7.78 16.22 8.17 15.83L10.59 13.41L8.17 10.99C7.78 10.6 7.78 9.97 8.17 9.58C8.56 9.19 9.19 9.19 9.58 9.58L12 12L14.42 9.58C14.81 9.19 15.44 9.19 15.83 9.58C16.22 9.97 16.22 10.6 15.83 10.99L13.41 13.41Z" fill="#FF3B30" stroke="#FF3B30" stroke-width="0.8"/>
  <g filter="url(#glow-error)">
    <path d="M12 2C6.48 2 2 6.48 2 12C2 17.52 6.48 22 12 22C17.52 22 22 17.52 22 12C22 6.48 17.52 2 12 2ZM13.41 13.41L15.83 15.83C16.22 16.22 16.22 16.85 15.83 17.24C15.44 17.63 14.81 17.63 14.42 17.24L12 14.82L9.58 17.24C9.19 17.63 8.56 17.63 8.17 17.24C7.78 16.85 7.78 16.22 8.17 15.83L10.59 13.41L8.17 10.99C7.78 10.6 7.78 9.97 8.17 9.58C8.56 9.19 9.19 9.19 9.58 9.58L12 12L14.42 9.58C14.81 9.19 15.44 9.19 15.83 9.58C16.22 9.97 16.22 10.6 15.83 10.99L13.41 13.41Z" fill="#FF3B30" stroke="#FF3B30" stroke-width="0.7"/>
  </g>
  <defs>
    <filter id="glow-error" x="-1" y="-1" width="26" height="26" filterUnits="userSpaceOnUse">
      <feGaussianBlur in="SourceGraphic" stdDeviation="0.5"/>
      <feColorMatrix type="matrix" values="0 0 0 0 1  0 0 0 0 0.23  0 0 0 0 0.19  0 0 0 1.2 0"/>
    </filter>
  </defs>
</svg>
