<svg xmlns="http://www.w3.org/2000/svg" viewBox="0 0 24 24">
  <!-- Outer glow filter -->
  <defs>
    <filter id="glow-explorer" x="-50%" y="-50%" width="200%" height="200%">
      <feGaussianBlur stdDeviation="1.5" result="blur" />
      <feFlood flood-color="#76FF8F" flood-opacity="0.8" result="color" />
      <feComposite in="color" in2="blur" operator="in" result="glow" />
      <feMerge>
        <feMergeNode in="glow" />
        <feMergeNode in="SourceGraphic" />
      </feMerge>
    </filter>
  </defs>

  <!-- Main icon with glow effect -->
  <g filter="url(#glow-explorer)" fill="none" stroke="#9AFFA9" stroke-width="2" stroke-linecap="round" stroke-linejoin="round">
    <path d="M4 4h16a1 1 0 0 1 1 1v14a1 1 0 0 1-1 1H4a1 1 0 0 1-1-1V5a1 1 0 0 1 1-1z" />
    <path d="M7 8h10M7 12h10M7 16h6" stroke-width="1.5" />
  </g>

  <!-- Decorative elements -->
  <rect x="3" y="4" width="18" height="1" fill="#F0F4FC" opacity="0.7">
    <animate attributeName="opacity" values="0.4;0.8;0.4" dur="2s" repeatCount="indefinite" />
  </rect>

  <!-- Inner accent -->
  <path d="M4 8L20 8" stroke="#6CF3FF" stroke-width="0.5" opacity="0.6" />
  <path d="M4 12L20 12" stroke="#6CF3FF" stroke-width="0.5" opacity="0.6" />
  <path d="M4 16L13 16" stroke="#6CF3FF" stroke-width="0.5" opacity="0.6" />
</svg>
