<svg xmlns="http://www.w3.org/2000/svg" viewBox="0 0 24 24">
  <!-- Outer glow filter -->
  <defs>
    <filter id="glow-notifications" x="-50%" y="-50%" width="200%" height="200%">
      <feGaussianBlur stdDeviation="1.5" result="blur" />
      <feFlood flood-color="#FF6E6E" flood-opacity="0.8" result="color" />
      <feComposite in="color" in2="blur" operator="in" result="glow" />
      <feMerge>
        <feMergeNode in="glow" />
        <feMergeNode in="SourceGraphic" />
      </feMerge>
    </filter>
    <linearGradient id="notifications-gradient" x1="0%" y1="0%" x2="100%" y2="100%">
      <stop offset="0%" style="stop-color:#FF6E6E;stop-opacity:1" />
      <stop offset="100%" style="stop-color:#FF4757;stop-opacity:1" />
    </linearGradient>
  </defs>

  <!-- Main notification bell -->
  <g filter="url(#glow-notifications)">
    <!-- Bell shape -->
    <path d="M18 8A6 6 0 0 0 6 8c0 7-3 9-3 9h18s-3-2-3-9" fill="none" stroke="url(#notifications-gradient)" stroke-width="2" />

    <!-- Bell bottom -->
    <path d="M13.73 21a2 2 0 0 1-3.46 0" stroke="url(#notifications-gradient)" stroke-width="2" stroke-linecap="round" />

    <!-- Bell clapper -->
    <circle cx="12" cy="8" r="1" fill="url(#notifications-gradient)" opacity="0.8" />

    <!-- Notification indicator -->
    <circle cx="17" cy="5" r="2" fill="#FF4757" stroke="#FF6E6E" stroke-width="1">
      <animate attributeName="opacity" values="0.7;1;0.7" dur="1.5s" repeatCount="indefinite" />
    </circle>

    <!-- Sound waves -->
    <path d="M19 8.5c0-1.5-.5-2.5-1-3" stroke="url(#notifications-gradient)" stroke-width="1" opacity="0.6" stroke-linecap="round" />
    <path d="M21 8.5c0-2.5-1-4.5-2-5.5" stroke="url(#notifications-gradient)" stroke-width="1" opacity="0.4" stroke-linecap="round" />
  </g>

  <!-- Subtle background glow -->
  <path d="M18 8A6 6 0 0 0 6 8c0 7-3 9-3 9h18s-3-2-3-9" fill="none" stroke="#FF6E6E" stroke-width="0.5" opacity="0.3">
    <animate attributeName="opacity" values="0.2;0.4;0.2" dur="3s" repeatCount="indefinite" />
  </path>
</svg>
