<svg xmlns="http://www.w3.org/2000/svg" viewBox="0 0 24 24">
  <!-- Outer glow filter -->
  <defs>
    <filter id="glow-remote" x="-50%" y="-50%" width="200%" height="200%">
      <feGaussianBlur stdDeviation="1.5" result="blur" />
      <feFlood flood-color="#00D9FF" flood-opacity="0.8" result="color" />
      <feComposite in="color" in2="blur" operator="in" result="glow" />
      <feMerge>
        <feMergeNode in="glow" />
        <feMergeNode in="SourceGraphic" />
      </feMerge>
    </filter>
    <linearGradient id="remote-gradient" x1="0%" y1="0%" x2="100%" y2="100%">
      <stop offset="0%" style="stop-color:#00D9FF;stop-opacity:1" />
      <stop offset="100%" style="stop-color:#00B8D9;stop-opacity:1" />
    </linearGradient>
  </defs>

  <!-- Main remote connection icon -->
  <g filter="url(#glow-remote)">
    <!-- Local computer -->
    <rect x="2" y="4" width="8" height="6" rx="1" fill="none" stroke="url(#remote-gradient)" stroke-width="1.5" />
    <line x1="2" y1="8" x2="10" y2="8" stroke="url(#remote-gradient)" stroke-width="1" opacity="0.6" />

    <!-- Remote computer -->
    <rect x="14" y="4" width="8" height="6" rx="1" fill="none" stroke="url(#remote-gradient)" stroke-width="1.5" />
    <line x1="14" y1="8" x2="22" y2="8" stroke="url(#remote-gradient)" stroke-width="1" opacity="0.6" />

    <!-- Connection line -->
    <path d="M10 7 L14 7" stroke="url(#remote-gradient)" stroke-width="2" stroke-linecap="round" />

    <!-- Connection indicators -->
    <circle cx="11" cy="7" r="0.5" fill="url(#remote-gradient)">
      <animate attributeName="opacity" values="0.5;1;0.5" dur="1s" repeatCount="indefinite" />
    </circle>
    <circle cx="13" cy="7" r="0.5" fill="url(#remote-gradient)">
      <animate attributeName="opacity" values="0.5;1;0.5" dur="1s" begin="0.5s" repeatCount="indefinite" />
    </circle>

    <!-- Data transfer visualization -->
    <circle cx="12" cy="7" r="1" fill="none" stroke="url(#remote-gradient)" stroke-width="0.5" opacity="0.6">
      <animate attributeName="r" values="1;2;1" dur="1.5s" repeatCount="indefinite" />
    </circle>

    <!-- Network cloud -->
    <path d="M8 14c-1.5 0-2.5 1-2.5 2.5s1 2.5 2.5 2.5h8c1.5 0 2.5-1 2.5-2.5s-1-2.5-2.5-2.5c0-1.5-1-2.5-2.5-2.5s-2.5 1-2.5 2.5c-0.5-0.5-1-0.5-1.5 0z" fill="none" stroke="url(#remote-gradient)" stroke-width="1" opacity="0.5" />
  </g>

  <!-- Subtle background glow -->
  <path d="M10 7 L14 7" stroke="#00D9FF" stroke-width="0.5" opacity="0.3">
    <animate attributeName="opacity" values="0.2;0.4;0.2" dur="3s" repeatCount="indefinite" />
  </path>
</svg>
