<svg xmlns="http://www.w3.org/2000/svg" viewBox="0 0 24 24">
  <!-- Outer glow filter -->
  <defs>
    <filter id="glow-trash" x="-50%" y="-50%" width="200%" height="200%">
      <feGaussianBlur stdDeviation="1.5" result="blur" />
      <feFlood flood-color="#FF6E6E" flood-opacity="0.8" result="color" />
      <feComposite in="color" in2="blur" operator="in" result="glow" />
      <feMerge>
        <feMergeNode in="glow" />
        <feMergeNode in="SourceGraphic" />
      </feMerge>
    </filter>
  </defs>

  <!-- Main icon with glow effect -->
  <g filter="url(#glow-trash)" fill="none" stroke="#FF9191" stroke-width="2" stroke-linecap="round" stroke-linejoin="round">
    <path d="M3 6h18M19 6v14a2 2 0 0 1-2 2H7a2 2 0 0 1-2-2V6M8 6V4a2 2 0 0 1 2-2h4a2 2 0 0 1 2 2v2" />
    <line x1="10" y1="11" x2="10" y2="17" />
    <line x1="14" y1="11" x2="14" y2="17" />
  </g>

  <!-- Decorative elements -->
  <rect x="8" y="4" width="8" height="2" fill="#FF6E6E" opacity="0.5">
    <animate attributeName="opacity" values="0.3;0.7;0.3" dur="2s" repeatCount="indefinite" />
  </rect>

  <!-- Inner accent -->
  <path d="M7 9h10" stroke="#FF92DF" stroke-width="0.5" opacity="0.6" />
  <path d="M7 12h10" stroke="#FF92DF" stroke-width="0.5" opacity="0.6" />
  <path d="M7 15h10" stroke="#FF92DF" stroke-width="0.5" opacity="0.6" />
</svg>
