<svg width="24" height="24" viewBox="0 0 24 24" fill="none"
  xmlns="http://www.w3.org/2000/svg">
  <path d="M12 2C11.4477 2 11.0135 2.37309 10.8447 2.89443L3.84467 20.8944C3.65079 21.4459 4.03279 22 4.65584 22H19.3442C19.9672 22 20.3492 21.4459 20.1553 20.8944L13.1553 2.89443C12.9865 2.37309 12.5523 2 12 2ZM12 9C12.5523 9 13 9.44772 13 10V14C13 14.5523 12.5523 15 12 15C11.4477 15 11 14.5523 11 14V10C11 9.44772 11.4477 9 12 9ZM12 17C12.5523 17 13 17.4477 13 18C13 18.5523 12.5523 19 12 19C11.4477 19 11 18.5523 11 18C11 17.4477 11.4477 17 12 17Z" fill="#FFD60A" stroke="#FFFFFF" stroke-width="0.5" stroke-opacity="0.5"/>
  <path d="M12 2C11.4477 2 11.0135 2.37309 10.8447 2.89443L3.84467 20.8944C3.65079 21.4459 4.03279 22 4.65584 22H19.3442C19.9672 22 20.3492 21.4459 20.1553 20.8944L13.1553 2.89443C12.9865 2.37309 12.5523 2 12 2ZM12 9C12.5523 9 13 9.44772 13 10V14C13 14.5523 12.5523 15 12 15C11.4477 15 11 14.5523 11 14V10C11 9.44772 11.4477 9 12 9ZM12 17C12.5523 17 13 17.4477 13 18C13 18.5523 12.5523 19 12 19C11.4477 19 11 18.5523 11 18C11 17.4477 11.4477 17 12 17Z" fill="#FFD60A" stroke="#FFD60A" stroke-width="0.8"/>
  <g filter="url(#glow-warning)">
    <path d="M12 2C11.4477 2 11.0135 2.37309 10.8447 2.89443L3.84467 20.8944C3.65079 21.4459 4.03279 22 4.65584 22H19.3442C19.9672 22 20.3492 21.4459 20.1553 20.8944L13.1553 2.89443C12.9865 2.37309 12.5523 2 12 2ZM12 9C12.5523 9 13 9.44772 13 10V14C13 14.5523 12.5523 15 12 15C11.4477 15 11 14.5523 11 14V10C11 9.44772 11.4477 9 12 9ZM12 17C12.5523 17 13 17.4477 13 18C13 18.5523 12.5523 19 12 19C11.4477 19 11 18.5523 11 18C11 17.4477 11.4477 17 12 17Z" fill="#FFD60A" stroke="#FFD60A" stroke-width="0.7"/>
  </g>
  <defs>
    <filter id="glow-warning" x="-1" y="-1" width="26" height="26" filterUnits="userSpaceOnUse">
      <feGaussianBlur in="SourceGraphic" stdDeviation="0.5"/>
      <feColorMatrix type="matrix" values="0 0 0 0 1  0 0 0 0 0.84  0 0 0 0 0.04  0 0 0 1.2 0"/>
    </filter>
  </defs>
</svg>
