<?xml version="1.0" encoding="UTF-8" standalone="no" ?>
<!DOCTYPE svg PUBLIC "-//W3C//DTD SVG 1.1//EN" "http://www.w3.org/Graphics/SVG/1.1/DTD/svg11.dtd">
<svg xmlns="http://www.w3.org/2000/svg"
  xmlns:xlink="http://www.w3.org/1999/xlink" version="1.1" width="1080" height="1080" viewBox="0 0 1080 1080" xml:space="preserve">
  <desc>Created with Fabric.js 5.2.4</desc>
  <defs>
  </defs>
  <rect x="0" y="0" width="100%" height="100%" fill="transparent"></rect>
  <g transform="matrix(1 0 0 1 540 540)" id="f658664d-4d95-4d57-9c41-6489bb413b5d">
  </g>
  <g transform="matrix(1 0 0 1 540 540)" id="f8182c1b-d70c-4ce7-befd-96323048a41e">
    <rect style="stroke: none; stroke-width: 1; stroke-dasharray: none; stroke-linecap: butt; stroke-dashoffset: 0; stroke-linejoin: miter; stroke-miterlimit: 4; fill: rgb(255,255,255); fill-rule: nonzero; opacity: 1;" vector-effect="non-scaling-stroke" x="-540" y="-540" rx="0" ry="0" width="1080" height="1080" />
  </g>
  <g transform="matrix(1 0 0 1 540 540)">
    <g style="" vector-effect="non-scaling-stroke">
      <g transform="matrix(1 0 0 1 0 0)">
        <rect style="stroke: none; stroke-width: 1; stroke-dasharray: none; stroke-linecap: butt; stroke-dashoffset: 0; stroke-linejoin: miter; stroke-miterlimit: 4; fill: rgb(49,120,198); fill-rule: nonzero; opacity: 1;" vector-effect="non-scaling-stroke" x="-256" y="-256" rx="15" ry="15" width="512" height="512" />
      </g>
      <g transform="matrix(1 0 0 1 37.55 97.47)">
        <path style="stroke: none; stroke-width: 1; stroke-dasharray: none; stroke-linecap: butt; stroke-dashoffset: 0; stroke-linejoin: miter; stroke-miterlimit: 4; fill: rgb(255,255,255); fill-rule: nonzero; opacity: 1;" vector-effect="non-scaling-stroke" transform=" translate(-293.55, -353.47)" d="M 233 284 L 297 284 L 297 243 L 118 243 L 118 284 L 182 284 L 182 467 L 233 467 z M 317 457 C 325.1 461.2 335 464.3 346 466.4 C 357 468.49999999999994 369 469.5 381 469.5 C 393 469.5 404 468.4 415 466.1 C 426 463.8 435 460 443 455.1 C 451.1 449.8 458 443.1 462 434.1 C 466 425.1 469.1 415.1 469.1 402.1 C 469.1 393 467.70000000000005 385.1 465 378.1 C 462.29999999999995 371.1 458.4 365.1 453 360.1 C 447.9 354.8 442 350.1 435 346.1 C 428 342.1 420 337.90000000000003 411 334.1 C 404.4 331.40000000000003 399 328.8 393 326.20000000000005 C 387.8 323.6 383.3 321.00000000000006 380 318.40000000000003 C 376.3 315.70000000000005 373.5 312.90000000000003 371.5 310.00000000000006 C 369.5 307.00000000000006 368.5 303.70000000000005 368.5 300.00000000000006 C 368.5 296.6000000000001 369.39 293.50000000000006 371.2 290.70000000000005 C 373.01 287.90000000000003 375.5 285.6 378.7 283.6 C 381.9 281.6 385.9 280.1 390.7 279 C 395.4 277.9 400.59999999999997 277.4 406.7 277.4 C 410.9 277.4 415.3 277.71 419.7 278.34 C 424.3 278.96999999999997 429 279.94 433.7 281.23999999999995 C 438.4 282.53999999999996 443 284.13999999999993 447.7 286.13999999999993 C 452.09999999999997 288.13999999999993 456.2 290.43999999999994 459.7 293.0399999999999 L 459.7 246.0399999999999 C 452.09999999999997 243.1399999999999 443.7 240.9399999999999 434.7 239.5399999999999 C 425.7 238.1399999999999 415.7 237.4399999999999 403.7 237.4399999999999 C 391.7 237.4399999999999 380.7 238.73999999999992 369.7 241.23999999999992 C 358.7 243.73999999999992 349.7 247.73999999999992 341.7 253.23999999999992 C 333.59999999999997 258.63999999999993 327.7 265.2399999999999 322.7 274.2399999999999 C 318 282.6399999999999 315.7 292.2399999999999 315.7 304.2399999999999 C 315.7 319.2399999999999 320 332.2399999999999 328.7 342.2399999999999 C 337.3 353.2399999999999 350.7 361.2399999999999 367.7 369.2399999999999 C 374.59999999999997 372.0399999999999 380.7 374.8399999999999 386.7 377.5399999999999 C 392.7 380.2399999999999 397.7 383.0399999999999 401.7 385.9399999999999 C 406 388.83999999999986 409.4 392.0399999999999 411.7 395.4399999999999 C 414.2 398.83999999999986 415.5 402.83999999999986 415.5 407.4399999999999 C 415.5 410.6399999999999 414.72 413.6399999999999 413.2 416.4399999999999 C 411.67999999999995 419.2399999999999 409.3 421.6399999999999 406.09999999999997 423.6399999999999 C 402.8999999999999 425.6399999999999 398.99999999999994 427.2399999999999 394.09999999999997 428.4399999999999 C 389.4 429.5399999999999 384.09999999999997 430.1399999999999 377.09999999999997 430.1399999999999 C 366.09999999999997 430.1399999999999 355.09999999999997 428.2399999999999 345.09999999999997 424.4399999999999 C 334.09999999999997 420.6399999999999 324.09999999999997 414.9399999999999 316.99999999999994 408.9999999999999 z" stroke-linecap="round" />
      </g>
    </g>
  </g>
  <g transform="matrix(-0.28 0 0 0.28 390.94 387.57)">
    <g style="" vector-effect="non-scaling-stroke">
      <g transform="matrix(25 0 0 25 0 -0.63)">
        <circle style="stroke: none; stroke-width: 1; stroke-dasharray: none; stroke-linecap: butt; stroke-dashoffset: 0; stroke-linejoin: miter; stroke-miterlimit: 4; fill: rgb(255,255,255); fill-rule: nonzero; opacity: 1;" vector-effect="non-scaling-stroke" cx="0" cy="0" r="2.5" />
      </g>
      <g transform="matrix(25 0 0 25 0 0.07)">
        <path style="stroke: none; stroke-width: 1; stroke-dasharray: none; stroke-linecap: butt; stroke-dashoffset: 0; stroke-linejoin: miter; stroke-miterlimit: 4; fill: rgb(255,255,255); fill-rule: nonzero; opacity: 1;" vector-effect="non-scaling-stroke" transform=" translate(-16, -16)" d="M 16 21.706 C 12.995134638741792 21.77868340995877 9.997794966891165 21.373637508357334 7.119999999999999 20.506 C 5.790621736094048 20.084586748077637 4.55073443830582 19.420736781145905 3.463000000000001 18.548000000000005 C 2.6230294128087914 17.944648632218108 2.0886163680143506 17.004403124835406 2.0000000000000004 15.974 C 2 14.321 3.816 12.701 6.858 11.641 C 9.812733448706265 10.70175000883766 12.899922297680874 10.24653992697179 16.00000000000001 10.292999999999997 C 19.05870438412984 10.250264970156646 22.10454273348312 10.697249006350807 25.022000000000002 11.616999999999997 C 26.302286385466036 12.025157654331869 27.500132077500936 12.656921379978314 28.559999999999995 13.482999999999995 C 29.38593825450356 14.058440184104652 29.913524182133976 14.971090563081992 30 15.973999999999998 C 30 17.692 27.97 19.433 24.7 20.515 C 21.87792712587582 21.354371352791198 18.943830100638753 21.7560391179702 15.999999999999998 21.705999999999996 Z M 16 11.488999999999999 C 13.034114221672581 11.449355496777107 10.080825765720977 11.882103902369742 7.250999999999998 12.770999999999999 C 4.451 13.748 3.1959999999999997 15.084 3.1959999999999997 15.971 C 3.1959999999999997 16.899 4.545 18.358 7.507 19.371 C 10.260073086779965 20.19685408651604 13.126610957031467 20.581286752737217 15.999999999999993 20.509999999999998 C 18.81640478654541 20.56036488479708 21.623922975799374 20.17928433778723 24.325000000000006 19.38 C 27.4 18.361 28.8 16.9 28.8 15.974 C 28.69799505734604 15.331544149638766 28.331730629106524 14.7611145005093 27.79 14.401 C 26.84174967455711 13.668144333783498 25.771699820698984 13.10823846276757 24.628999999999994 12.747 C 21.83802709762279 11.870756326002487 18.924976879291908 11.446070131233657 16 11.489 Z" stroke-linecap="round" />
      </g>
      <g transform="matrix(25 0 0 25 -0.31 -0.16)">
        <path style="stroke: none; stroke-width: 1; stroke-dasharray: none; stroke-linecap: butt; stroke-dashoffset: 0; stroke-linejoin: miter; stroke-miterlimit: 4; fill: rgb(255,255,255); fill-rule: nonzero; opacity: 1;" vector-effect="non-scaling-stroke" transform=" translate(-15.99, -15.99)" d="M 10.32 28.443 C 9.85350030464401 28.453703805403403 9.392503419164546 28.340524929327607 8.984 28.115000000000002 C 7.552 27.289 7.056 24.907000000000004 7.657 21.742 C 8.319646053636726 18.71309454312015 9.467803168677474 15.811296281489224 11.056999999999995 13.149000000000006 L 11.057 13.149000000000001 C 12.54772980280152 10.478103783363816 14.456182261585885 8.062913815179957 16.709999999999987 5.99500000000001 C 17.7031600392107 5.089704966997083 18.848868564514728 4.367542944398535 20.093999999999998 3.8620000000000028 C 21.005753789726842 3.4347078649612475 22.060246210273156 3.434707864961247 22.972 3.8619999999999988 C 24.461000000000002 4.72 24.954 7.348000000000001 24.259 10.721 C 23.57589004003131 13.585562566302599 22.457560486231166 16.328437795813024 20.943 18.854 C 19.50473279394562 21.49335750850519 17.656372509223946 23.88751738789358 15.467000000000002 25.946999999999996 C 14.437784723208075 26.88778316647838 13.243334397857087 27.629949434486697 11.944000000000003 28.136000000000003 C 11.423819790896175 28.32906472504673 10.874759940442699 28.432858674609058 10.32 28.443 Z M 12.093 13.743000000000002 C 10.577097282064948 16.292326884469396 9.476662217662025 19.066705962484008 8.833000000000002 21.96200000000001 C 8.28 24.877000000000002 8.811 26.630000000000003 9.583 27.076000000000004 C 10.383000000000001 27.539000000000005 12.325 27.100000000000005 14.683 25.040000000000003 C 16.773027588483096 23.066949960795377 18.537233434756054 20.77520370171878 19.91 18.250000000000007 C 21.360936494626774 15.835516581586429 22.43369552604152 13.213141784893235 23.091000000000005 10.474 C 23.745 7.299000000000004 23.18 5.355000000000004 22.378 4.893000000000003 C 21.77028341991661 4.660146618074166 21.09282566226844 4.692423781045626 20.51 4.982000000000003 C 19.401680513064882 5.439346941157316 18.382732685122747 6.088629975706487 17.499999999999996 6.900000000000001 C 15.346670646371042 8.880787926264142 13.523688590679868 11.192936833565778 12.099999999999987 13.74900000000002 Z" stroke-linecap="round" />
      </g>
      <g transform="matrix(25 0 0 25 0.48 0.43)">
        <path style="stroke: none; stroke-width: 1; stroke-dasharray: none; stroke-linecap: butt; stroke-dashoffset: 0; stroke-linejoin: miter; stroke-miterlimit: 4; fill: rgb(255,255,255); fill-rule: nonzero; opacity: 1;" vector-effect="non-scaling-stroke" transform=" translate(-16.02, -16.02)" d="M 21.677 28.456 C 20.322 28.456 18.601 27.636 16.808999999999997 26.095 C 14.515699789597349 24.008274853628652 12.574977585788732 21.56438994168103 11.062000000000001 18.858 L 11.061999999999998 18.857999999999997 C 9.492732727905882 16.232357299062336 8.353669550797159 13.372545747998913 7.687999999999999 10.386999999999993 C 7.399308701726816 9.07348785186606 7.3458139682835135 7.719190802668527 7.529999999999996 6.387 C 7.6162015148259545 5.386572658264312 8.141354412902649 4.475794933357244 8.964 3.9 C 10.451 3.0389999999999997 12.974 3.924 15.549 6.21 C 17.689592037466582 8.23218507894239 19.507389828834818 10.570702682902933 20.939 13.143999999999998 C 22.507297503547644 15.708345758438963 23.65830542312658 18.50553128030132 24.349 21.430999999999983 C 24.65011687824601 22.792705396674496 24.69656606432224 24.198386604499685 24.486 25.577 C 24.384619734532084 26.605848264411648 23.838917499051796 27.53909405534347 22.992 28.132 C 22.590161764944234 28.354720466152354 22.136311664898685 28.46654360867308 21.677 28.456 Z M 12.097 18.256 C 13.548429927992629 20.842433072718354 15.402288078406333 23.181359351708988 17.589000000000013 25.185000000000013 C 19.837999999999997 27.12 21.622 27.536 22.389 27.085 C 23.189 26.62 23.779 24.722 23.171 21.651 C 22.5048776826524 18.8579386688035 21.400886672396 16.18790721599445 19.89999999999999 13.739999999999991 C 18.533831158025407 11.27712276052215 16.79874064017539 9.037861139817746 14.755000000000003 7.1 C 12.331000000000001 4.9479999999999995 10.365000000000002 4.467 9.564 4.930999999999999 C 9.059262694409691 5.341172401586658 8.749216245480515 5.943859183013898 8.709 6.593 C 8.550005207812655 7.781086483403149 8.601798509677844 8.987904268693335 8.862 10.158000000000005 C 9.50230233179004 13.01313971721212 10.594742556827244 15.747616176668679 12.097999999999994 18.258000000000003 Z" stroke-linecap="round" />
      </g>
    </g>
  </g>
</svg>
